<svg width="81" height="103" viewBox="0 0 81 103" fill="none" xmlns="http://www.w3.org/2000/svg">
<rect x="0.599976" width="80" height="80" rx="14.0625" fill="white"/>
<g clip-path="url(#clip0_10_51)">
<path d="M68.0188 19.8786C65.3659 17.2425 61.8894 15.9265 58.4128 15.9265C54.9362 15.9265 51.4597 17.2425 48.8068 19.8786L42.7582 25.8889C42.1606 23.6902 40.9937 21.6078 39.2574 19.8786C36.6046 17.2425 33.124 15.9265 29.6474 15.9265C26.1709 15.9265 22.6943 17.2425 20.0415 19.8786C19.8598 20.0591 9.19995 30.6835 9.19995 30.6835L42.7986 64.0692L68.0389 38.9888L68.0188 38.9687C73.3244 33.6967 73.3244 25.1506 68.0188 19.8786ZM25.0241 24.8296C26.2597 23.6019 27.9071 22.9238 29.6555 22.9279C31.4039 22.9319 33.5641 24.0192 34.6745 25.2509C35.3529 26.0052 36.007 26.9682 36.4633 28.4045C36.4673 28.4206 36.4754 28.4407 36.4794 28.4567C37.0205 30.182 36.5359 32.0597 35.2519 33.3356L28.537 40.0079L19.1532 30.6835C22.125 27.7185 24.9192 24.938 25.0241 24.8337V24.8296ZM63.0401 34.0217L58.0575 38.9727L58.0777 38.9928L42.7986 54.1751L33.5197 44.955L39.1323 39.378V39.39L47.7409 30.84L48.8068 29.7807L53.7895 24.8337C55.0251 23.6059 56.6685 22.9319 58.4128 22.9319C60.1571 22.9319 61.8046 23.6059 63.0361 24.8337C64.2717 26.0614 64.95 27.6944 64.95 29.4277C64.95 31.1609 64.2676 32.7979 63.0361 34.0217H63.0401Z" fill="#FF6257"/>
<path d="M25.0242 24.8296C26.2598 23.6019 27.9072 22.9238 29.6556 22.9279C31.3191 22.9279 33.5642 24.0192 34.6746 25.2509C35.3529 26.0052 36.007 26.9682 36.4633 28.4045C36.4673 28.4206 36.4754 28.4407 36.4795 28.4567C37.0165 30.1699 36.54 32.0396 35.2681 33.3195L42.7542 25.8809C42.1526 23.6862 40.9897 21.6118 39.2575 19.8866C36.6046 17.2425 33.124 15.9265 29.6475 15.9265C26.1709 15.9265 22.6944 17.2425 20.0415 19.8786C19.8598 20.0591 24.9192 24.93 25.0242 24.8296Z" fill="url(#paint0_linear_10_51)"/>
</g>
<path d="M12.128 100H8.67771V89.8182H12.1976C13.2085 89.8182 14.0769 90.022 14.8027 90.4297C15.5319 90.834 16.092 91.4157 16.4831 92.1747C16.8742 92.9337 17.0698 93.8419 17.0698 94.8991C17.0698 95.9598 16.8726 96.8712 16.4781 97.6335C16.087 98.3958 15.5219 98.9808 14.7828 99.3885C14.047 99.7962 13.1621 100 12.128 100ZM10.5222 98.4041H12.0385C12.7478 98.4041 13.3394 98.2749 13.8134 98.0163C14.2873 97.7545 14.6436 97.3651 14.8823 96.848C15.1209 96.3277 15.2402 95.678 15.2402 94.8991C15.2402 94.1203 15.1209 93.474 14.8823 92.9602C14.6436 92.4432 14.2906 92.0571 13.8233 91.8018C13.3593 91.5433 12.7826 91.4141 12.0932 91.4141H10.5222V98.4041ZM21.8434 100.149C21.0778 100.149 20.4165 99.9901 19.8597 99.6719C19.3062 99.3504 18.8803 98.8963 18.582 98.3097C18.2837 97.7197 18.1346 97.0253 18.1346 96.2266C18.1346 95.4411 18.2837 94.7517 18.582 94.1584C18.8836 93.5618 19.3046 93.0978 19.8448 92.7663C20.385 92.4316 21.0198 92.2642 21.7489 92.2642C22.2196 92.2642 22.6637 92.3404 23.0813 92.4929C23.5022 92.642 23.8734 92.8741 24.1949 93.1889C24.5198 93.5038 24.775 93.9048 24.9606 94.392C25.1462 94.8759 25.239 95.4527 25.239 96.1222V96.674H18.9797V95.4609H23.5138C23.5105 95.1162 23.4359 94.8097 23.2901 94.5412C23.1443 94.2694 22.9404 94.0556 22.6786 93.8999C22.4201 93.7441 22.1185 93.6662 21.7738 93.6662C21.4059 93.6662 21.0827 93.7557 20.8043 93.9347C20.5259 94.1103 20.3088 94.3423 20.153 94.6307C20.0006 94.9157 19.9227 95.2289 19.9194 95.5703V96.6293C19.9194 97.0734 20.0006 97.4545 20.163 97.7727C20.3254 98.0876 20.5524 98.3295 20.8441 98.4986C21.1358 98.6643 21.4771 98.7472 21.8682 98.7472C22.1301 98.7472 22.3671 98.7107 22.5792 98.6378C22.7913 98.5616 22.9752 98.4505 23.131 98.3047C23.2868 98.1589 23.4045 97.9782 23.484 97.7628L25.1644 97.9517C25.0583 98.3958 24.8562 98.7836 24.5579 99.1151C24.2629 99.4432 23.885 99.6984 23.4243 99.8807C22.9636 100.06 22.4367 100.149 21.8434 100.149ZM28.679 100.154C28.1951 100.154 27.7592 100.068 27.3714 99.8956C26.987 99.7199 26.682 99.4614 26.4567 99.12C26.2346 98.7786 26.1236 98.3577 26.1236 97.8572C26.1236 97.4264 26.2031 97.0701 26.3622 96.7884C26.5213 96.5066 26.7384 96.2812 27.0135 96.1122C27.2886 95.9432 27.5985 95.8156 27.9432 95.7294C28.2912 95.6399 28.6508 95.5753 29.022 95.5355C29.4695 95.4891 29.8324 95.4477 30.1108 95.4112C30.3892 95.3714 30.5914 95.3118 30.7173 95.2322C30.8466 95.1494 30.9112 95.0218 30.9112 94.8494V94.8196C30.9112 94.4451 30.8002 94.1551 30.5781 93.9496C30.3561 93.7441 30.0362 93.6413 29.6186 93.6413C29.1778 93.6413 28.8281 93.7375 28.5696 93.9297C28.3144 94.1219 28.142 94.349 28.0525 94.6108L26.3722 94.3722C26.5047 93.9081 26.7235 93.5204 27.0284 93.2088C27.3333 92.8939 27.7062 92.6586 28.147 92.5028C28.5878 92.3438 29.075 92.2642 29.6087 92.2642C29.9766 92.2642 30.3428 92.3073 30.7074 92.3935C31.072 92.4796 31.4051 92.6222 31.7067 92.821C32.0083 93.0166 32.2502 93.2834 32.4325 93.6214C32.6181 93.9595 32.7109 94.3821 32.7109 94.8892V100H30.9808V98.951H30.9212C30.8118 99.1631 30.6577 99.362 30.4588 99.5476C30.2632 99.7299 30.0163 99.8774 29.718 99.9901C29.4231 100.099 29.0767 100.154 28.679 100.154ZM29.1463 98.8317C29.5076 98.8317 29.8208 98.7604 30.0859 98.6179C30.3511 98.4721 30.5549 98.2798 30.6974 98.0412C30.8433 97.8026 30.9162 97.5424 30.9162 97.2607V96.3608C30.8598 96.4072 30.7637 96.4503 30.6278 96.4901C30.4953 96.5298 30.3461 96.5646 30.1804 96.5945C30.0147 96.6243 29.8506 96.6508 29.6882 96.674C29.5258 96.6972 29.3849 96.7171 29.2656 96.7337C28.9972 96.7701 28.7569 96.8298 28.5447 96.9126C28.3326 96.9955 28.1652 97.1115 28.0426 97.2607C27.92 97.4065 27.8587 97.5954 27.8587 97.8274C27.8587 98.1589 27.9796 98.4091 28.2216 98.5781C28.4635 98.7472 28.7718 98.8317 29.1463 98.8317ZM34.2406 100V92.3636H35.9856V93.6364H36.0652C36.2044 93.1955 36.443 92.8558 36.7811 92.6172C37.1225 92.3752 37.5119 92.2543 37.9494 92.2543C38.0488 92.2543 38.1599 92.2592 38.2825 92.2692C38.4084 92.2758 38.5128 92.2874 38.5957 92.304V93.9595C38.5195 93.933 38.3985 93.9098 38.2328 93.8899C38.0704 93.8667 37.9129 93.8551 37.7605 93.8551C37.4323 93.8551 37.1374 93.9264 36.8755 94.0689C36.617 94.2081 36.4132 94.402 36.264 94.6506C36.1149 94.8991 36.0403 95.1858 36.0403 95.5107V100H34.2406ZM42.7836 100V89.8182H46.6813C47.4171 89.8182 48.0286 89.9342 48.5158 90.1662C49.0063 90.3949 49.3726 90.7081 49.6145 91.1058C49.8598 91.5036 49.9824 91.9543 49.9824 92.4581C49.9824 92.8724 49.9029 93.227 49.7438 93.522C49.5847 93.8137 49.3709 94.0507 49.1025 94.233C48.834 94.4152 48.534 94.5462 48.2026 94.6257V94.7251C48.5639 94.745 48.9102 94.8561 49.2417 95.0582C49.5764 95.2571 49.8499 95.5388 50.062 95.9034C50.2741 96.268 50.3802 96.7088 50.3802 97.2259C50.3802 97.7528 50.2526 98.2268 49.9973 98.6477C49.7421 99.0653 49.3577 99.3951 48.8439 99.6371C48.3302 99.879 47.6839 100 46.905 100H42.7836ZM44.628 98.4588H46.6117C47.2812 98.4588 47.7634 98.3312 48.0584 98.076C48.3567 97.8175 48.5059 97.486 48.5059 97.0817C48.5059 96.7801 48.4313 96.5083 48.2821 96.2663C48.133 96.0211 47.9209 95.8288 47.6458 95.6896C47.3707 95.5471 47.0426 95.4759 46.6614 95.4759H44.628V98.4588ZM44.628 94.1484H46.4526C46.7708 94.1484 47.0575 94.0904 47.3127 93.9744C47.5679 93.8551 47.7684 93.6877 47.9143 93.4723C48.0634 93.2536 48.138 92.995 48.138 92.6967C48.138 92.3023 47.9988 91.9775 47.7204 91.7223C47.4453 91.4671 47.0359 91.3395 46.4924 91.3395H44.628V94.1484ZM55.0059 100.149C54.2403 100.149 53.579 99.9901 53.0222 99.6719C52.4687 99.3504 52.0428 98.8963 51.7445 98.3097C51.4462 97.7197 51.2971 97.0253 51.2971 96.2266C51.2971 95.4411 51.4462 94.7517 51.7445 94.1584C52.0461 93.5618 52.4671 93.0978 53.0073 92.7663C53.5475 92.4316 54.1823 92.2642 54.9114 92.2642C55.3821 92.2642 55.8262 92.3404 56.2438 92.4929C56.6647 92.642 57.0359 92.8741 57.3574 93.1889C57.6823 93.5038 57.9375 93.9048 58.1231 94.392C58.3087 94.8759 58.4015 95.4527 58.4015 96.1222V96.674H52.1422V95.4609H56.6763C56.673 95.1162 56.5984 94.8097 56.4526 94.5412C56.3068 94.2694 56.1029 94.0556 55.8411 93.8999C55.5826 93.7441 55.281 93.6662 54.9363 93.6662C54.5684 93.6662 54.2452 93.7557 53.9668 93.9347C53.6884 94.1103 53.4713 94.3423 53.3155 94.6307C53.1631 94.9157 53.0852 95.2289 53.0819 95.5703V96.6293C53.0819 97.0734 53.1631 97.4545 53.3255 97.7727C53.4879 98.0876 53.7149 98.3295 54.0066 98.4986C54.2983 98.6643 54.6396 98.7472 55.0307 98.7472C55.2926 98.7472 55.5296 98.7107 55.7417 98.6378C55.9538 98.5616 56.1377 98.4505 56.2935 98.3047C56.4493 98.1589 56.567 97.9782 56.6465 97.7628L58.3269 97.9517C58.2208 98.3958 58.0187 98.7836 57.7204 99.1151C57.4254 99.4432 57.0475 99.6984 56.5868 99.8807C56.1261 100.06 55.5992 100.149 55.0059 100.149ZM61.4437 89.8182V100H59.644V89.8182H61.4437ZM64.8141 89.8182V100H63.0144V89.8182H64.8141ZM67.5034 102.864C67.2581 102.864 67.0311 102.844 66.8223 102.804C66.6168 102.768 66.4528 102.724 66.3301 102.675L66.7477 101.273C67.0096 101.349 67.2432 101.385 67.4487 101.382C67.6542 101.379 67.8349 101.314 67.9906 101.188C68.1497 101.066 68.284 100.86 68.3933 100.572L68.5474 100.159L65.7783 92.3636H67.6874L69.4473 98.1307H69.5269L71.2918 92.3636H73.2058L70.1483 100.925C70.0058 101.329 69.8169 101.675 69.5815 101.964C69.3462 102.255 69.0579 102.478 68.7165 102.63C68.3784 102.786 67.9741 102.864 67.5034 102.864Z" fill="white"/>
<defs>
<linearGradient id="paint0_linear_10_51" x1="20.8854" y1="11.2844" x2="44.4608" y2="35.0101" gradientUnits="userSpaceOnUse">
<stop offset="0.38" stop-color="#FF6257"/>
<stop offset="1" stop-color="#DE473D"/>
</linearGradient>
<clipPath id="clip0_10_51">
<rect width="62.8001" height="48.1467" fill="white" transform="translate(9.19995 15.9265)"/>
</clipPath>
</defs>
</svg>
